
        <svg xmlns="http://www.w3.org/2000/svg" xmlns:xlink="http://www.w3.org/1999/xlink" version="1.1" width="3162.6016260162605" 
        height="1178.8617886178863" viewBox="0 0 3162.6016260162605 1178.8617886178863">
			
			<g transform="scale(8.130081300813009) translate(10, 10)">
				<defs id="SvgjsDefs2990"></defs><g id="SvgjsG2991" featureKey="symbolFeature-0" transform="matrix(1.6025641025641026,0,0,1.6025641025641026,390.224358974359,-574.5192307692308)" fill="#00adb5"><path xmlns="http://www.w3.org/2000/svg" d="M-167.5,390.5c-1.1,0-2-0.9-2-2c0-1.1,0.9-2,2-2c1.1,0,2,0.9,2,2C-165.5,389.6-166.4,390.5-167.5,390.5z   M-177.5,428.5c-2.2,0-4-1.8-4-4s1.8-4,4-4c2.2,0,4,1.8,4,4S-175.3,428.5-177.5,428.5z M-177.5,410.5c-2.2,0-4-1.8-4-4s1.8-4,4-4  c2.2,0,4,1.8,4,4S-175.3,410.5-177.5,410.5z M-177.5,392.5c-2.2,0-4-1.8-4-4c0-2.2,1.8-4,4-4c2.2,0,4,1.8,4,4  C-173.5,390.7-175.3,392.5-177.5,392.5z M-177.5,374.5c-2.2,0-4-1.8-4-4c0-2.2,1.8-4,4-4c2.2,0,4,1.8,4,4  C-173.5,372.7-175.3,374.5-177.5,374.5z M-194.5,414.5c-3.9,0-7-3.1-7-7c0-3.9,3.1-7,7-7c3.9,0,7,3.1,7,7  C-187.5,411.4-190.6,414.5-194.5,414.5z M-194.5,394.5c-3.9,0-7-3.1-7-7c0-3.9,3.1-7,7-7c3.9,0,7,3.1,7,7  C-187.5,391.4-190.6,394.5-194.5,394.5z M-195.5,374.5c-2.2,0-4-1.8-4-4c0-2.2,1.8-4,4-4c2.2,0,4,1.8,4,4  C-191.5,372.7-193.3,374.5-195.5,374.5z M-195.5,362.5c-1.1,0-2-0.9-2-2c0-1.1,0.9-2,2-2c1.1,0,2,0.9,2,2  C-193.5,361.6-194.4,362.5-195.5,362.5z M-214.5,414.5c-3.9,0-7-3.1-7-7c0-3.9,3.1-7,7-7s7,3.1,7,7  C-207.5,411.4-210.6,414.5-214.5,414.5z M-214.5,394.5c-3.9,0-7-3.1-7-7c0-3.9,3.1-7,7-7s7,3.1,7,7  C-207.5,391.4-210.6,394.5-214.5,394.5z M-213.5,374.5c-2.2,0-4-1.8-4-4c0-2.2,1.8-4,4-4c2.2,0,4,1.8,4,4  C-209.5,372.7-211.3,374.5-213.5,374.5z M-213.5,362.5c-1.1,0-2-0.9-2-2c0-1.1,0.9-2,2-2c1.1,0,2,0.9,2,2  C-211.5,361.6-212.4,362.5-213.5,362.5z M-231.5,374.5c-2.2,0-4-1.8-4-4c0-2.2,1.8-4,4-4c2.2,0,4,1.8,4,4  C-227.5,372.7-229.3,374.5-231.5,374.5z M-231.5,384.5c2.2,0,4,1.8,4,4c0,2.2-1.8,4-4,4c-2.2,0-4-1.8-4-4  C-235.5,386.3-233.7,384.5-231.5,384.5z M-241.5,408.5c-1.1,0-2-0.9-2-2c0-1.1,0.9-2,2-2c1.1,0,2,0.9,2,2  C-239.5,407.6-240.4,408.5-241.5,408.5z M-241.5,390.5c-1.1,0-2-0.9-2-2c0-1.1,0.9-2,2-2c1.1,0,2,0.9,2,2  C-239.5,389.6-240.4,390.5-241.5,390.5z M-231.5,402.5c2.2,0,4,1.8,4,4s-1.8,4-4,4c-2.2,0-4-1.8-4-4S-233.7,402.5-231.5,402.5z   M-231.5,420.5c2.2,0,4,1.8,4,4s-1.8,4-4,4c-2.2,0-4-1.8-4-4S-233.7,420.5-231.5,420.5z M-213.5,420.5c2.2,0,4,1.8,4,4  c0,2.2-1.8,4-4,4c-2.2,0-4-1.8-4-4C-217.5,422.3-215.7,420.5-213.5,420.5z M-213.5,432.5c1.1,0,2,0.9,2,2c0,1.1-0.9,2-2,2  c-1.1,0-2-0.9-2-2C-215.5,433.4-214.6,432.5-213.5,432.5z M-195.5,420.5c2.2,0,4,1.8,4,4c0,2.2-1.8,4-4,4c-2.2,0-4-1.8-4-4  C-199.5,422.3-197.7,420.5-195.5,420.5z M-195.5,432.5c1.1,0,2,0.9,2,2c0,1.1-0.9,2-2,2c-1.1,0-2-0.9-2-2  C-197.5,433.4-196.6,432.5-195.5,432.5z M-167.5,404.5c1.1,0,2,0.9,2,2c0,1.1-0.9,2-2,2c-1.1,0-2-0.9-2-2  C-169.5,405.4-168.6,404.5-167.5,404.5z" style="fill-rule: evenodd; clip-rule: evenodd;"></path></g><g id="SvgjsG2992" featureKey="nameFeature-0" transform="matrix(1.8962780897121543,0,0,1.8962780897121543,146.7245375625364,-7.962768238099567)" fill="#1ac1f9"><path d="M28.2 10.64 q0.44 0.6 0.16 1.32 l-10.96 27.08 q-0.16 0.4 -0.52 0.64 t-0.8 0.24 l-3.52 0 q-0.44 0 -0.8 -0.24 t-0.52 -0.64 l-10.96 -27.08 q-0.32 -0.68 0.12 -1.32 t1.16 -0.64 l13.36 0 q0.56 0 0.98 0.42 t0.42 1.02 l0 2.92 q0 0.6 -0.42 1.02 t-0.98 0.42 l-6.72 0 l6.12 15.4 l8.04 -20.32 q0.16 -0.4 0.52 -0.64 t0.8 -0.24 l3.36 0 q0.36 0 0.68 0.18 t0.48 0.46 z M40.67 21.88 q0.6 0 1 0.42 t0.4 1.02 l0 14.96 q0 0.56 -0.4 0.98 t-1 0.42 l-3.04 0 q-0.56 0 -0.98 -0.42 t-0.42 -0.98 l0 -14.96 q0 -0.6 0.42 -1.02 t0.98 -0.42 l3.04 0 z M40.67 10 q0.6 0 1 0.42 t0.4 0.98 l0 7.4 q0 0.6 -0.4 1.02 t-1 0.42 l-3.04 0 q-0.56 0 -0.98 -0.42 t-0.42 -1.02 l0 -7.4 q0 -0.56 0.42 -0.98 t0.98 -0.42 l3.04 0 z M77.46000000000001 10 q0.56 0 0.98 0.42 t0.42 0.98 l0 26.8 q0 0.56 -0.42 0.98 t-0.98 0.42 l-3.52 0 q-0.72 0 -1.16 -0.56 l-19.56 -26.8 q-0.24 -0.32 -0.28 -0.72 t0.14 -0.76 t0.52 -0.56 t0.74 -0.2 l3.52 0 q0.32 0 0.64 0.14 t0.48 0.42 l14.04 19.08 l0 -18.24 q0 -0.56 0.4 -0.98 t1 -0.42 l3.04 0 z M57.38 29.4 q0.56 0 0.98 0.4 t0.42 1 l0 7.4 q0 0.56 -0.42 0.98 t-0.98 0.42 l-3.04 0 q-0.56 0 -0.98 -0.42 t-0.42 -0.98 l0 -7.4 q0 -0.6 0.42 -1 t0.98 -0.4 l3.04 0 z M116.05000000000001 37.72 q0.28 0.64 -0.14 1.3 t-1.14 0.66 l-26.64 0 q-0.36 0 -0.68 -0.18 t-0.48 -0.46 q-0.44 -0.64 -0.12 -1.32 l1.24 -2.92 q0.16 -0.4 0.52 -0.64 t0.76 -0.24 l18.64 0 l-6.56 -15.68 l-5.36 12.8 q-0.16 0.4 -0.5 0.62 t-0.78 0.22 l-3.36 0 q-0.76 0 -1.2 -0.64 q-0.16 -0.28 -0.2 -0.64 t0.08 -0.68 l8.12 -19.04 q0.16 -0.4 0.5 -0.64 t0.78 -0.24 l3.84 0 q0.44 0 0.78 0.24 t0.5 0.64 z"></path></g><g id="SvgjsG2993" featureKey="sloganFeature-0" transform="matrix(1.983171217448372,0,0,1.983171217448372,143.1754826832622,74.87140960439689)" fill="#eeeeee"><path d="M3.94 9.3 l-2.84 0 c-0.1 0 -0.18 -0.08 -0.18 -0.18 l0 -2.14 c0 -0.1 0.08 -0.18 0.18 -0.18 l8.34 0 c0.1 0 0.18 0.08 0.18 0.18 l0 2.14 c0 0.1 -0.08 0.18 -0.18 0.18 l-2.84 0 l0 10.52 c0 0.1 -0.08 0.18 -0.18 0.18 l-2.3 0 c-0.1 0 -0.18 -0.08 -0.18 -0.18 l0 -10.52 z M8.22 7.9 l-6.04 0 c-0.14 0 -0.14 0.26 0 0.26 l2.96 0 l0 10.6 c0 0.14 0.26 0.14 0.26 0 l0 -10.6 l2.82 0 c0.2 0 0.18 -0.26 0 -0.26 z M12.580000000000002 20 c-0.1 0 -0.16 -0.08 -0.16 -0.18 l0 -12.84 c0 -0.1 0.06 -0.18 0.16 -0.18 l6.8 0 c0.1 0 0.18 0.08 0.18 0.18 l0 2.14 c0 0.1 -0.08 0.18 -0.18 0.18 l-4.32 0 l0 2.72 l3.36 0 c0.1 0 0.16 0.08 0.16 0.18 l0 2.18 c0 0.1 -0.06 0.18 -0.16 0.18 l-3.36 0 l0 2.94 l4.32 0 c0.1 0 0.18 0.08 0.18 0.18 l0 2.14 c0 0.1 -0.08 0.18 -0.18 0.18 l-6.8 0 z M13.580000000000002 8.06 l0 10.64 c0 0.12 0.08 0.16 0.16 0.16 l4.6 0 c0.18 0 0.14 -0.24 0 -0.24 l-4.5 0 l0 -5.22 l3.68 0 c0.12 0 0.12 -0.28 0 -0.28 l-3.68 0 l0 -4.96 l4.5 0 c0.14 0 0.18 -0.26 0 -0.26 l-4.6 0 c-0.08 0 -0.16 0.06 -0.16 0.16 z M29.200000000000003 15.379999999999999 l0 -0.62 c0 -0.1 0.08 -0.18 0.18 -0.18 l2.28 0 c0.1 0 0.18 0.08 0.18 0.18 l0 1.26 c0 2.94 -1.58 4.18 -4.56 4.18 c-2.78 0 -4.6 -1.1 -4.6 -4.18 l0 -5.26 c0 -2.96 1.62 -4.14 4.6 -4.14 c2.82 0 4.56 1.08 4.56 4.14 l0 0.42 c0 0.1 -0.08 0.18 -0.18 0.18 l-2.3 0 c-0.1 0 -0.18 -0.08 -0.18 -0.18 l0 -0.32 c0 -1.1 -0.82 -1.56 -1.8 -1.56 l-0.24 0 c-0.66 0 -1.1 0.18 -1.4 0.58 c-0.28 0.38 -0.38 0.88 -0.38 1.54 l0 3.96 c0 1.74 0.98 2.12 1.78 2.12 l0.24 0 c1.26 0 1.78 -0.84 1.82 -2.12 z M27.240000000000002 7.859999999999999 c-2.14 0 -3.38 0.76 -3.38 3.2 l0 4.82 c0 2.22 1.14 3.04 3.38 3.04 c2.1 0 3.36 -0.76 3.36 -3.06 c0 -0.16 -0.24 -0.16 -0.24 0 c0 2.02 -1.1 2.84 -3.12 2.84 c-1.96 0 -3.16 -0.68 -3.16 -2.82 l0 -4.82 c0 -2.08 0.98 -2.98 3.16 -2.98 c2.84 0 2.94 1.8 2.94 2 c0 0.18 0.28 0.2 0.28 0 c0 -1.66 -1.68 -2.22 -3.22 -2.22 z M41.080000000000005 12 l0 -5.02 c0 -0.1 0.08 -0.18 0.18 -0.18 l2.28 0 c0.1 0 0.18 0.08 0.18 0.18 l0 12.84 c0 0.1 -0.08 0.18 -0.18 0.18 l-2.28 0 c-0.1 0 -0.18 -0.08 -0.18 -0.18 l0 -5.32 l-3.24 0 l0 5.32 c0 0.1 -0.08 0.18 -0.18 0.18 l-2.28 0 c-0.1 0 -0.16 -0.08 -0.16 -0.18 l0 -12.84 c0 -0.1 0.06 -0.18 0.16 -0.18 l2.28 0 c0.1 0 0.18 0.08 0.18 0.18 l0 5.02 l3.24 0 z M36.38 18.76 c0 0.16 0.26 0.14 0.26 0 l0 -5.36 l5.62 0 l0 5.36 c0 0.14 0.22 0.16 0.22 0 l0 -10.76 c0 -0.14 -0.22 -0.18 -0.22 0 l0 5.12 l-5.62 0 l0 -5.12 c0 -0.14 -0.26 -0.14 -0.26 0 l0 10.76 z M52.92 6.98 c0 -0.1 0.08 -0.18 0.18 -0.18 l2.3 0 c0.1 0 0.18 0.08 0.18 0.18 l0 12.84 c0 0.1 -0.08 0.18 -0.18 0.18 l-2.22 0 c-0.08 0 -0.16 -0.04 -0.18 -0.1 l-2.92 -6.58 l0 6.5 c0 0.1 -0.08 0.18 -0.18 0.18 l-2.28 0 c-0.1 0 -0.16 -0.08 -0.16 -0.18 l0 -12.84 c0 -0.1 0.06 -0.18 0.16 -0.18 l2.36 0 c0.08 0 0.12 0.06 0.14 0.1 l2.8 6.46 l0 -6.38 z M54.36000000000001 18.8 l0 -10.8 c0 -0.14 -0.26 -0.18 -0.26 0 l0 10.28 l-5.22 -10.32 c-0.06 -0.08 -0.22 -0.08 -0.22 0.04 l0 10.78 c0 0.18 0.24 0.18 0.24 0 l0 -10.26 l5.2 10.3 c0.08 0.14 0.26 0.1 0.26 -0.02 z M63.68000000000001 6.619999999999999 c1.72 0 2.92 0.38 3.68 1.2 c0.6 0.66 0.88 1.6 0.88 2.94 l0 5.26 c0 1.38 -0.28 2.34 -0.88 2.98 c-0.78 0.8 -1.96 1.2 -3.68 1.2 c-1.78 0 -2.94 -0.4 -3.7 -1.2 c-0.58 -0.64 -0.9 -1.6 -0.9 -2.98 l0 -5.26 c0 -1.34 0.32 -2.28 0.9 -2.96 c0.78 -0.8 1.96 -1.18 3.7 -1.18 z M65.58000000000001 15.42 l0 -4 c0 -1.76 -0.94 -2.12 -1.8 -2.12 l-0.24 0 c-1.28 0 -1.78 0.82 -1.78 2.12 l0 4 c0 1.76 0.94 2.14 1.78 2.14 l0.24 0 c1.28 0 1.78 -0.86 1.8 -2.14 z M60.34000000000001 10.9 l0 4.96 c0 0.94 0.24 1.72 0.8 2.3 c0.52 0.52 1.32 0.8 2.3 0.8 l0.52 0 c1.88 0 3.1 -1.2 3.1 -3.1 l0 -4.96 c0 -2.04 -1.08 -3.14 -3.1 -3.14 l-0.52 0 c-2.04 0 -3.1 1.1 -3.1 3.14 z M63.96000000000001 18.7 l-0.52 0 c-0.94 0 -1.64 -0.24 -2.14 -0.74 s-0.76 -1.2 -0.76 -2.1 l0 -4.96 c0 -1.9 1.02 -2.9 2.9 -2.9 l0.52 0 c1.9 0 2.84 0.98 2.84 2.9 l0 4.96 c0 0.84 -0.26 1.6 -0.8 2.12 c-0.52 0.44 -1.22 0.72 -2.04 0.72 z M74.18 6.800000000000001 c0.1 0 0.18 0.08 0.18 0.18 l0 10.5 l4.32 0 c0.1 0 0.18 0.08 0.18 0.18 l0 2.16 c0 0.1 -0.08 0.18 -0.18 0.18 l-6.78 0 c-0.1 0 -0.16 -0.08 -0.16 -0.18 l0 -12.84 c0 -0.1 0.06 -0.18 0.16 -0.18 l2.28 0 z M72.94000000000001 8.02 l0 10.76 c0 0.04 0.04 0.1 0.12 0.1 l4.62 0 c0.16 0 0.16 -0.26 0 -0.26 l-4.52 0 l0 -10.6 c0 -0.14 -0.22 -0.16 -0.22 0 z M86.00000000000001 6.619999999999999 c1.72 0 2.92 0.38 3.68 1.2 c0.6 0.66 0.88 1.6 0.88 2.94 l0 5.26 c0 1.38 -0.28 2.34 -0.88 2.98 c-0.78 0.8 -1.96 1.2 -3.68 1.2 c-1.78 0 -2.94 -0.4 -3.7 -1.2 c-0.58 -0.64 -0.9 -1.6 -0.9 -2.98 l0 -5.26 c0 -1.34 0.32 -2.28 0.9 -2.96 c0.78 -0.8 1.96 -1.18 3.7 -1.18 z M87.90000000000002 15.42 l0 -4 c0 -1.76 -0.94 -2.12 -1.8 -2.12 l-0.24 0 c-1.28 0 -1.78 0.82 -1.78 2.12 l0 4 c0 1.76 0.94 2.14 1.78 2.14 l0.24 0 c1.28 0 1.78 -0.86 1.8 -2.14 z M82.66000000000001 10.9 l0 4.96 c0 0.94 0.24 1.72 0.8 2.3 c0.52 0.52 1.32 0.8 2.3 0.8 l0.52 0 c1.88 0 3.1 -1.2 3.1 -3.1 l0 -4.96 c0 -2.04 -1.08 -3.14 -3.1 -3.14 l-0.52 0 c-2.04 0 -3.1 1.1 -3.1 3.14 z M86.28000000000002 18.7 l-0.52 0 c-0.94 0 -1.64 -0.24 -2.14 -0.74 s-0.76 -1.2 -0.76 -2.1 l0 -4.96 c0 -1.9 1.02 -2.9 2.9 -2.9 l0.52 0 c1.9 0 2.84 0.98 2.84 2.9 l0 4.96 c0 0.84 -0.26 1.6 -0.8 2.12 c-0.52 0.44 -1.22 0.72 -2.04 0.72 z M98.20000000000002 15.2 c-0.1 0 -0.18 -0.08 -0.18 -0.18 l0 -2.14 c0 -0.1 0.08 -0.18 0.18 -0.18 l4.58 0 c0.1 0 0.18 0.08 0.18 0.18 l0 3.14 c0 2.94 -1.58 4.18 -4.56 4.18 c-2.78 0 -4.6 -1.1 -4.6 -4.18 l0 -5.26 c0 -2.9 1.62 -4.14 4.6 -4.14 c2.8 0 4.56 1.08 4.56 4.14 l0 0.42 c0 0.1 -0.08 0.18 -0.18 0.18 l-2.3 0 c-0.1 0 -0.18 -0.08 -0.18 -0.18 l0 -0.26 c0 -1.22 -0.78 -1.62 -1.8 -1.62 l-0.24 0 c-0.66 0 -1.1 0.18 -1.4 0.58 c-0.28 0.38 -0.38 0.88 -0.38 1.54 l0 3.96 c0 1.74 0.94 2.12 1.78 2.12 l0.24 0 c1.22 0 1.8 -0.84 1.8 -2.12 l0 -0.18 l-2.1 0 z M95.02000000000002 15.879999999999999 c0 2.22 1.08 3.04 3.36 3.04 c2.4 0 3.38 -1 3.38 -3.46 l0 -1.5 c0 -0.06 -0.04 -0.14 -0.08 -0.14 l-2.78 0 c-0.18 0 -0.14 0.26 0 0.26 l2.62 0 l0 1.38 c0 2.14 -0.82 3.24 -3.14 3.24 c-1.92 0 -3.12 -0.68 -3.12 -2.82 l0 -4.82 c0 -2.06 0.94 -2.98 3.12 -2.98 c1.62 0 3.1 0.9 2.98 2.28 c0 0.16 0.22 0.2 0.26 0.02 c0 -1.76 -1.6 -2.52 -3.24 -2.52 c-2 0 -3.36 0.72 -3.36 3.2 l0 4.82 z M107.86000000000001 6.9 l1.74 3.36 l1.7 -3.36 c0.06 -0.1 0.08 -0.1 0.16 -0.1 l2.24 0 c0.12 0 0.2 0.12 0.16 0.22 l-2.9 6.74 l0 6.06 c0 0.1 -0.08 0.18 -0.18 0.18 l-2.36 0 c-0.06 0 -0.14 -0.08 -0.14 -0.18 l0 -6.06 l-2.98 -6.7 c-0.04 -0.14 0.02 -0.26 0.16 -0.26 l2.24 0 c0.08 0 0.1 0 0.16 0.1 z M109.70000000000002 13.3 l2.5 -5.2 c0.06 -0.12 -0.14 -0.22 -0.22 -0.08 l-2.38 4.98 l-2.44 -4.98 c-0.08 -0.14 -0.3 -0.04 -0.24 0.1 l2.56 5.18 l0 5.52 c0 0.14 0.22 0.16 0.22 0 l0 -5.52 z"></path></g>
			</g>
		</svg>
	